<?xml version="1.0" encoding="UTF-8" standalone="no"?>
<!DOCTYPE svg PUBLIC "-//W3C//DTD SVG 1.1//EN"
 "http://www.w3.org/Graphics/SVG/1.1/DTD/svg11.dtd">
<!-- Generated by graphviz version 2.38.0 (20140413.2041)
 -->
<!-- Title: subtract_machine Pages: 1 -->
<svg width="611pt" height="168pt"
 viewBox="0.00 0.00 610.84 168.15" xmlns="http://www.w3.org/2000/svg" xmlns:xlink="http://www.w3.org/1999/xlink">
<g id="graph0" class="graph" transform="scale(1 1) rotate(0) translate(4 164.148)">
<title>subtract_machine</title>
<polygon fill="white" stroke="none" points="-4,4 -4,-164.148 606.841,-164.148 606.841,4 -4,4"/>
<!-- q_start -->
<g id="node1" class="node"><title>q_start</title>
<ellipse fill="black" stroke="black" cx="1.8" cy="-100.148" rx="1.8" ry="1.8"/>
</g>
<!-- q0 -->
<g id="node3" class="node"><title>q0</title>
<ellipse fill="none" stroke="black" cx="60.7482" cy="-100.148" rx="20.2975" ry="20.2975"/>
<text text-anchor="middle" x="60.7482" y="-96.4482" font-family="Times New Roman,serif" font-size="14.00">q0</text>
</g>
<!-- q_start&#45;&gt;q0 -->
<g id="edge1" class="edge"><title>q_start&#45;&gt;q0</title>
<path fill="none" stroke="black" d="M3.78844,-100.148C7.14695,-100.148 18.56,-100.148 30.2108,-100.148"/>
<polygon fill="black" stroke="black" points="30.3142,-103.648 40.3141,-100.148 30.3141,-96.6483 30.3142,-103.648"/>
</g>
<!-- q4 -->
<g id="node2" class="node"><title>q4</title>
<ellipse fill="none" stroke="black" cx="564.341" cy="-122.148" rx="20.2726" ry="20.2726"/>
<ellipse fill="none" stroke="black" cx="564.341" cy="-122.148" rx="24.2973" ry="24.2973"/>
<text text-anchor="middle" x="564.341" y="-118.448" font-family="Times New Roman,serif" font-size="14.00">q4</text>
</g>
<!-- q0&#45;&gt;q0 -->
<g id="edge2" class="edge"><title>q0&#45;&gt;q0</title>
<path fill="none" stroke="black" d="M53.8737,-119.384C52.8161,-129.331 55.1076,-138.296 60.7482,-138.296 64.2736,-138.296 66.4907,-134.794 67.3996,-129.739"/>
<polygon fill="black" stroke="black" points="70.9064,-129.457 67.6227,-119.384 63.908,-129.306 70.9064,-129.457"/>
<text text-anchor="middle" x="60.7482" y="-142.096" font-family="Times New Roman,serif" font-size="14.00">0__/_0_,RRS</text>
</g>
<!-- q1 -->
<g id="node4" class="node"><title>q1</title>
<ellipse fill="none" stroke="black" cx="216.045" cy="-100.148" rx="20.2975" ry="20.2975"/>
<text text-anchor="middle" x="216.045" y="-96.4482" font-family="Times New Roman,serif" font-size="14.00">q1</text>
</g>
<!-- q0&#45;&gt;q1 -->
<g id="edge3" class="edge"><title>q0&#45;&gt;q1</title>
<path fill="none" stroke="black" d="M81.1633,-100.148C107.541,-100.148 154.928,-100.148 185.669,-100.148"/>
<polygon fill="black" stroke="black" points="185.787,-103.648 195.787,-100.148 185.787,-96.6483 185.787,-103.648"/>
<text text-anchor="middle" x="138.396" y="-103.948" font-family="Times New Roman,serif" font-size="14.00">1__/___,RLS</text>
</g>
<!-- q1&#45;&gt;q4 -->
<g id="edge4" class="edge"><title>q1&#45;&gt;q4</title>
<path fill="none" stroke="black" d="M236.31,-102.385C242.058,-103.009 248.376,-103.651 254.193,-104.148 354.337,-112.715 473.085,-118.369 529.858,-120.796"/>
<polygon fill="black" stroke="black" points="529.903,-124.301 540.041,-121.225 530.197,-117.307 529.903,-124.301"/>
<text text-anchor="middle" x="386.193" y="-148.948" font-family="Times New Roman,serif" font-size="14.00">0__/0__,SSS</text>
<text text-anchor="middle" x="386.193" y="-133.948" font-family="Times New Roman,serif" font-size="14.00">___/___,SSS</text>
<text text-anchor="middle" x="386.193" y="-118.948" font-family="Times New Roman,serif" font-size="14.00">_0_/_0_,SSS</text>
</g>
<!-- q2 -->
<g id="node5" class="node"><title>q2</title>
<ellipse fill="none" stroke="black" cx="386.193" cy="-41.1482" rx="20.2975" ry="20.2975"/>
<text text-anchor="middle" x="386.193" y="-37.4482" font-family="Times New Roman,serif" font-size="14.00">q2</text>
</g>
<!-- q1&#45;&gt;q2 -->
<g id="edge5" class="edge"><title>q1&#45;&gt;q2</title>
<path fill="none" stroke="black" d="M235.36,-93.7219C264.798,-83.3924 322.835,-63.0283 357.401,-50.9"/>
<polygon fill="black" stroke="black" points="358.623,-54.1802 366.901,-47.5666 356.306,-47.575 358.623,-54.1802"/>
<text text-anchor="middle" x="291.693" y="-88.9482" font-family="Times New Roman,serif" font-size="14.00">00_/00_,SLS</text>
</g>
<!-- q2&#45;&gt;q4 -->
<g id="edge7" class="edge"><title>q2&#45;&gt;q4</title>
<path fill="none" stroke="black" d="M406.072,-44.9461C433.108,-50.9232 483.821,-64.165 522.193,-86.1482 528.03,-89.4924 533.789,-93.7443 539.066,-98.1449"/>
<polygon fill="black" stroke="black" points="537.093,-101.072 546.903,-105.073 541.729,-95.8277 537.093,-101.072"/>
<text text-anchor="middle" x="482.693" y="-104.948" font-family="Times New Roman,serif" font-size="14.00">_0_/_0_,SSS</text>
<text text-anchor="middle" x="482.693" y="-89.9482" font-family="Times New Roman,serif" font-size="14.00">___/___,SSS</text>
</g>
<!-- q2&#45;&gt;q2 -->
<g id="edge6" class="edge"><title>q2&#45;&gt;q2</title>
<path fill="none" stroke="black" d="M371.257,-55.2339C364.874,-67.001 369.853,-79.2964 386.193,-79.2964 397.937,-79.2964 403.812,-72.9446 403.818,-65.0025"/>
<polygon fill="black" stroke="black" points="407.157,-63.9462 401.128,-55.2339 400.408,-65.8043 407.157,-63.9462"/>
<text text-anchor="middle" x="386.193" y="-83.0964" font-family="Times New Roman,serif" font-size="14.00">00_/00_,SLS</text>
</g>
<!-- q3 -->
<g id="node6" class="node"><title>q3</title>
<ellipse fill="none" stroke="black" cx="564.341" cy="-20.1482" rx="20.2975" ry="20.2975"/>
<text text-anchor="middle" x="564.341" y="-16.4482" font-family="Times New Roman,serif" font-size="14.00">q3</text>
</g>
<!-- q2&#45;&gt;q3 -->
<g id="edge8" class="edge"><title>q2&#45;&gt;q3</title>
<path fill="none" stroke="black" d="M406.379,-38.8609C437.219,-35.1843 498.017,-27.936 534.227,-23.6192"/>
<polygon fill="black" stroke="black" points="534.663,-27.092 544.178,-22.4327 533.834,-20.1412 534.663,-27.092"/>
<text text-anchor="middle" x="482.693" y="-38.9482" font-family="Times New Roman,serif" font-size="14.00">0__/0__,SRS</text>
</g>
<!-- q3&#45;&gt;q2 -->
<g id="edge10" class="edge"><title>q3&#45;&gt;q2</title>
<path fill="none" stroke="black" d="M545.192,-13.0974C538.128,-10.7039 529.893,-8.3357 522.193,-7.14821 487.492,-1.79701 477.005,2.31267 443.193,-7.14821 431.62,-10.3863 420.061,-16.743 410.476,-23.0926"/>
<polygon fill="black" stroke="black" points="408.465,-20.2275 402.284,-28.8321 412.482,-25.9604 408.465,-20.2275"/>
<text text-anchor="middle" x="482.693" y="-10.9482" font-family="Times New Roman,serif" font-size="14.00">0__/___,RLS</text>
</g>
<!-- q3&#45;&gt;q3 -->
<g id="edge9" class="edge"><title>q3&#45;&gt;q3</title>
<path fill="none" stroke="black" d="M551.114,-35.4252C546.494,-46.8159 550.904,-58.2964 564.341,-58.2964 573.789,-58.2964 578.774,-52.6207 579.295,-45.2911"/>
<polygon fill="black" stroke="black" points="582.74,-44.672 577.569,-35.4252 575.845,-45.8789 582.74,-44.672"/>
<text text-anchor="middle" x="564.341" y="-62.0964" font-family="Times New Roman,serif" font-size="14.00">00_/000,SRR</text>
</g>
</g>
</svg>
