<?xml version="1.0" encoding="UTF-8" standalone="no"?>
<!DOCTYPE svg PUBLIC "-//W3C//DTD SVG 1.1//EN"
 "http://www.w3.org/Graphics/SVG/1.1/DTD/svg11.dtd">
<!-- Generated by graphviz version 2.38.0 (20140413.2041)
 -->
<!-- Title: subtract_machine Pages: 1 -->
<svg width="422pt" height="117pt"
 viewBox="0.00 0.00 421.79 117.30" xmlns="http://www.w3.org/2000/svg" xmlns:xlink="http://www.w3.org/1999/xlink">
<g id="graph0" class="graph" transform="scale(1 1) rotate(0) translate(4 113.296)">
<title>subtract_machine</title>
<polygon fill="white" stroke="none" points="-4,4 -4,-113.296 417.786,-113.296 417.786,4 -4,4"/>
<!-- q_start -->
<g id="node1" class="node"><title>q_start</title>
<ellipse fill="black" stroke="black" cx="1.8" cy="-24.1482" rx="1.8" ry="1.8"/>
</g>
<!-- q0 -->
<g id="node3" class="node"><title>q0</title>
<ellipse fill="none" stroke="black" cx="60.7482" cy="-24.1482" rx="20.2975" ry="20.2975"/>
<text text-anchor="middle" x="60.7482" y="-20.4482" font-family="Times New Roman,serif" font-size="14.00">q0</text>
</g>
<!-- q_start&#45;&gt;q0 -->
<g id="edge1" class="edge"><title>q_start&#45;&gt;q0</title>
<path fill="none" stroke="black" d="M3.78844,-24.1482C7.14695,-24.1482 18.56,-24.1482 30.2108,-24.1482"/>
<polygon fill="black" stroke="black" points="30.3142,-27.6483 40.3141,-24.1482 30.3141,-20.6483 30.3142,-27.6483"/>
</g>
<!-- q3 -->
<g id="node2" class="node"><title>q3</title>
<ellipse fill="none" stroke="black" cx="389.637" cy="-24.1482" rx="20.2726" ry="20.2726"/>
<ellipse fill="none" stroke="black" cx="389.637" cy="-24.1482" rx="24.2973" ry="24.2973"/>
<text text-anchor="middle" x="389.637" y="-20.4482" font-family="Times New Roman,serif" font-size="14.00">q3</text>
</g>
<!-- q1 -->
<g id="node4" class="node"><title>q1</title>
<ellipse fill="none" stroke="black" cx="169.045" cy="-56.1482" rx="20.2975" ry="20.2975"/>
<text text-anchor="middle" x="169.045" y="-52.4482" font-family="Times New Roman,serif" font-size="14.00">q1</text>
</g>
<!-- q0&#45;&gt;q1 -->
<g id="edge2" class="edge"><title>q0&#45;&gt;q1</title>
<path fill="none" stroke="black" d="M80.2636,-29.7222C96.6248,-34.6476 120.742,-41.9079 139.559,-47.5727"/>
<polygon fill="black" stroke="black" points="138.8,-50.9994 149.385,-50.5307 140.818,-44.2966 138.8,-50.9994"/>
<text text-anchor="middle" x="114.896" y="-47.9482" font-family="Times New Roman,serif" font-size="14.00">0/_,R</text>
</g>
<!-- q2 -->
<g id="node5" class="node"><title>q2</title>
<ellipse fill="none" stroke="black" cx="276.341" cy="-24.1482" rx="20.2975" ry="20.2975"/>
<text text-anchor="middle" x="276.341" y="-20.4482" font-family="Times New Roman,serif" font-size="14.00">q2</text>
</g>
<!-- q0&#45;&gt;q2 -->
<g id="edge3" class="edge"><title>q0&#45;&gt;q2</title>
<path fill="none" stroke="black" d="M80.7251,-20.4203C105.603,-15.979 150.616,-9.47436 189.193,-12.1482 208.224,-13.4673 229.45,-16.4067 246.071,-19.046"/>
<polygon fill="black" stroke="black" points="245.825,-22.5522 256.259,-20.717 246.958,-15.6445 245.825,-22.5522"/>
<text text-anchor="middle" x="169.045" y="-15.9482" font-family="Times New Roman,serif" font-size="14.00">1/_,R</text>
</g>
<!-- q1&#45;&gt;q1 -->
<g id="edge4" class="edge"><title>q1&#45;&gt;q1</title>
<path fill="none" stroke="black" d="M159.83,-74.2022C157.95,-84.6088 161.021,-94.2964 169.045,-94.2964 174.31,-94.2964 177.443,-90.1243 178.443,-84.3148"/>
<polygon fill="black" stroke="black" points="181.94,-84.1369 178.259,-74.2022 174.941,-84.2642 181.94,-84.1369"/>
<text text-anchor="middle" x="169.045" y="-98.0964" font-family="Times New Roman,serif" font-size="14.00">0/0,R</text>
</g>
<!-- q1&#45;&gt;q2 -->
<g id="edge5" class="edge"><title>q1&#45;&gt;q2</title>
<path fill="none" stroke="black" d="M188.87,-50.4273C205.041,-45.5127 228.595,-38.3545 247.038,-32.7496"/>
<polygon fill="black" stroke="black" points="248.129,-36.0762 256.679,-29.8196 246.093,-29.3787 248.129,-36.0762"/>
<text text-anchor="middle" x="222.693" y="-46.9482" font-family="Times New Roman,serif" font-size="14.00">1/0,R</text>
</g>
<!-- q2&#45;&gt;q3 -->
<g id="edge7" class="edge"><title>q2&#45;&gt;q3</title>
<path fill="none" stroke="black" d="M296.727,-24.1482C312.807,-24.1482 336.042,-24.1482 355.126,-24.1482"/>
<polygon fill="black" stroke="black" points="355.23,-27.6483 365.23,-24.1482 355.23,-20.6483 355.23,-27.6483"/>
<text text-anchor="middle" x="330.989" y="-27.9482" font-family="Times New Roman,serif" font-size="14.00">_/_,R</text>
</g>
<!-- q2&#45;&gt;q2 -->
<g id="edge6" class="edge"><title>q2&#45;&gt;q2</title>
<path fill="none" stroke="black" d="M267.127,-42.2022C265.246,-52.6088 268.318,-62.2964 276.341,-62.2964 281.606,-62.2964 284.739,-58.1243 285.739,-52.3148"/>
<polygon fill="black" stroke="black" points="289.237,-52.1369 285.555,-42.2022 282.238,-52.2642 289.237,-52.1369"/>
<text text-anchor="middle" x="276.341" y="-66.0964" font-family="Times New Roman,serif" font-size="14.00">0/0,R</text>
</g>
</g>
</svg>
